# xmcd CD database file
#
# Track frame offsets:
#	150
#	20223
#	35308
#	57316
#	80749
#	104680
#	119843
#	134441
#	155924
#	179108
#	199490
#
# Disc length: 3028 seconds
#
# Revision: 0
# Processed by: cddbd v1.5.2PL0 Copyright (c) Steve Scherf et al.
# Submitted via: CDex 1.70
#
DISCID=b40bd20b
DTITLE=SOMI - If The Rains Come First
DYEAR=2009
DGENRE=Jazz
TTITLE0=Hot Blue
TTITLE1=Prayer To The Saint Of The Brokenhearted
TTITLE2=Wallflower Blues
TTITLE3=Be Careful, Be Kind
TTITLE4=Enganjyani (Feat. Hugh Masekela)
TTITLE5=Rising
TTITLE6=Changing Inspiration
TTITLE7=Kuzunguka
TTITLE8=If The Rains Come First
TTITLE9=Jewel Of His Soul
TTITLE10=Maybe Then
EXTD=YEAR: 2009
EXTT0=
EXTT1=
EXTT2=
EXTT3=
EXTT4=
EXTT5=
EXTT6=
EXTT7=
EXTT8=
EXTT9=
EXTT10=
PLAYORDER=
